<svg width="40" height="40" viewBox="0 0 40 40" fill="none" xmlns="http://www.w3.org/2000/svg">
<g clip-path="url(#clip0_1387_254)">
<mask id="mask0_1387_254" style="mask-type:luminance" maskUnits="userSpaceOnUse" x="0" y="0" width="40" height="40">
<path d="M39.802 0H0.197998V40H39.802V0Z" fill="white"/>
</mask>
<g mask="url(#mask0_1387_254)">
<path fill-rule="evenodd" clip-rule="evenodd" d="M2.98193 2.81178C0.197998 5.62356 0.197998 10.149 0.197998 19.2V20.8C0.197998 29.851 0.197998 34.3764 2.98193 37.1882C5.76588 40 10.2466 40 19.2079 40H20.7921C29.7534 40 34.2341 40 37.018 37.1882C39.802 34.3764 39.802 29.851 39.802 20.8V19.2C39.802 10.149 39.802 5.62356 37.018 2.81178C34.2341 0 29.7534 0 20.7921 0H19.2079C10.2466 0 5.76588 0 2.98193 2.81178ZM6.88125 12.1668C7.09574 22.5668 12.2442 28.8167 21.2706 28.8167H21.7823V22.8667C25.0991 23.2 27.6072 25.6501 28.6138 28.8167H33.3004C32.0132 24.0834 28.6302 21.4667 26.518 20.4667C28.6302 19.2334 31.6006 16.2334 32.3101 12.1668H28.0526C27.1285 15.4668 24.3895 18.4667 21.7823 18.75V12.1668H17.5247V23.7C14.8845 23.0334 11.5512 19.8001 11.4027 12.1668H6.88125Z" fill="#032C28"/>
</g>
</g>
<defs>
<clipPath id="clip0_1387_254">
<rect width="40" height="40" fill="white"/>
</clipPath>
</defs>
</svg>
