<svg width="32" height="32" viewBox="0 0 32 32" fill="none" xmlns="http://www.w3.org/2000/svg">
<mask id="mask0_481_1038" style="mask-type:alpha" maskUnits="userSpaceOnUse" x="0" y="0" width="32" height="32">
<rect width="32" height="32" fill="#D9D9D9"/>
</mask>
<g mask="url(#mask0_481_1038)">
<path d="M12.077 23.3334C11.4034 23.3334 10.8333 23.1 10.3667 22.6334C9.9 22.1667 9.66667 21.5966 9.66667 20.923V5.74371C9.66667 5.07015 9.9 4.50004 10.3667 4.03337C10.8333 3.56671 11.4034 3.33337 12.077 3.33337H23.2563C23.9299 3.33337 24.5 3.56671 24.9667 4.03337C25.4333 4.50004 25.6667 5.07015 25.6667 5.74371V20.923C25.6667 21.5966 25.4333 22.1667 24.9667 22.6334C24.5 23.1 23.9299 23.3334 23.2563 23.3334H12.077ZM12.077 21.3334H23.2563C23.359 21.3334 23.453 21.2906 23.5383 21.205C23.6239 21.1197 23.6667 21.0257 23.6667 20.923V5.74371C23.6667 5.64104 23.6239 5.54704 23.5383 5.46171C23.453 5.37615 23.359 5.33337 23.2563 5.33337H12.077C11.9743 5.33337 11.8803 5.37615 11.795 5.46171C11.7094 5.54704 11.6667 5.64104 11.6667 5.74371V20.923C11.6667 21.0257 11.7094 21.1197 11.795 21.205C11.8803 21.2906 11.9743 21.3334 12.077 21.3334ZM7.41033 28C6.73678 28 6.16667 27.7667 5.7 27.3C5.23333 26.8334 5 26.2633 5 25.5897V9.41037C5 9.1266 5.09578 8.88893 5.28733 8.69737C5.47867 8.50604 5.71622 8.41037 6 8.41037C6.28378 8.41037 6.52144 8.50604 6.713 8.69737C6.90433 8.88893 7 9.1266 7 9.41037V25.5897C7 25.6924 7.04278 25.7864 7.12833 25.8717C7.21367 25.9573 7.30767 26 7.41033 26H19.5897C19.8734 26 20.1111 26.0957 20.3027 26.287C20.494 26.4786 20.5897 26.7163 20.5897 27C20.5897 27.2838 20.494 27.5214 20.3027 27.7127C20.1111 27.9043 19.8734 28 19.5897 28H7.41033Z" fill="#032C28"/>
</g>
</svg>
