<svg width="24" height="24" viewBox="0 0 24 24" fill="none" xmlns="http://www.w3.org/2000/svg">
<mask id="mask0_496_2199" style="mask-type:alpha" maskUnits="userSpaceOnUse" x="0" y="0" width="24" height="24">
<rect width="24" height="24" fill="#D9D9D9"/>
</mask>
<g mask="url(#mask0_496_2199)">
<path d="M12 2.66925C12.1142 2.66925 12.2222 2.67758 12.324 2.69425C12.426 2.71092 12.5289 2.74108 12.6328 2.78475L18.325 4.90975C18.6715 5.04642 18.9539 5.26667 19.1723 5.5705C19.3908 5.8745 19.5 6.21642 19.5 6.59625V10.1155C19.5 10.328 19.4281 10.5061 19.2843 10.6497C19.1404 10.7936 18.9622 10.8655 18.7498 10.8655C18.5371 10.8655 18.359 10.7936 18.2155 10.6497C18.0718 10.5061 18 10.328 18 10.1155V6.602C18 6.53783 17.9823 6.48008 17.947 6.42875C17.9118 6.37758 17.8622 6.33917 17.798 6.3135L12.1058 4.1885C12.0738 4.17567 12.0385 4.16925 12 4.16925C11.9615 4.16925 11.9262 4.17567 11.8942 4.1885L6.202 6.3135C6.13783 6.33917 6.08817 6.37758 6.053 6.42875C6.01767 6.48008 6 6.53783 6 6.602V11.1C6 11.9975 6.13042 12.8805 6.39125 13.749C6.65225 14.6177 7.01283 15.4286 7.473 16.1818C7.93333 16.9349 8.48208 17.6035 9.11925 18.1875C9.75642 18.7715 10.4462 19.2392 11.1885 19.5905C11.3808 19.6853 11.5199 19.8273 11.6058 20.0163C11.6918 20.2054 11.698 20.3955 11.6245 20.5865C11.539 20.7903 11.3975 20.9294 11.2 21.0038C11.0027 21.0781 10.811 21.0678 10.625 20.973C8.74817 20.1102 7.25808 18.7643 6.15475 16.9355C5.05158 15.1067 4.5 13.1615 4.5 11.1V6.59625C4.5 6.21642 4.60925 5.8745 4.82775 5.5705C5.04608 5.26667 5.3285 5.04642 5.675 4.90975L11.3672 2.78475C11.4728 2.73858 11.5782 2.70775 11.6838 2.69225C11.7891 2.67692 11.8945 2.66925 12 2.66925ZM17 21.5C15.7513 21.5 14.6892 21.0622 13.8135 20.1865C12.9378 19.3108 12.5 18.2487 12.5 17C12.5 15.7513 12.9378 14.6892 13.8135 13.8135C14.6892 12.9378 15.7513 12.5 17 12.5C18.2487 12.5 19.3108 12.9378 20.1865 13.8135C21.0622 14.6892 21.5 15.7513 21.5 17C21.5 18.2487 21.0622 19.3108 20.1865 20.1865C19.3108 21.0622 18.2487 21.5 17 21.5ZM17 17C17.4167 17 17.7708 16.8542 18.0625 16.5625C18.3542 16.2708 18.5 15.9167 18.5 15.5C18.5 15.0833 18.3542 14.7292 18.0625 14.4375C17.7708 14.1458 17.4167 14 17 14C16.5833 14 16.2292 14.1458 15.9375 14.4375C15.6458 14.7292 15.5 15.0833 15.5 15.5C15.5 15.9167 15.6458 16.2708 15.9375 16.5625C16.2292 16.8542 16.5833 17 17 17ZM17 20C17.423 20 17.8243 19.9193 18.2038 19.7577C18.5833 19.5962 18.9147 19.3591 19.198 19.0462C19.275 18.9526 19.3036 18.8497 19.2837 18.7375C19.2637 18.6253 19.1968 18.5391 19.0828 18.4788C18.7596 18.3159 18.4217 18.1954 18.069 18.1173C17.7162 18.0391 17.3591 18 16.9977 18C16.6364 18 16.2801 18.0391 15.9288 18.1173C15.5776 18.1954 15.2404 18.3159 14.9173 18.4788C14.8033 18.5391 14.7363 18.6253 14.7163 18.7375C14.6964 18.8497 14.725 18.9526 14.802 19.0462C15.0853 19.3591 15.4167 19.5962 15.7962 19.7577C16.1757 19.9193 16.577 20 17 20Z" fill="#032C28"/>
</g>
</svg>
