<svg width="24" height="24" viewBox="0 0 24 24" fill="none" xmlns="http://www.w3.org/2000/svg">
<mask id="mask0_496_2225" style="mask-type:alpha" maskUnits="userSpaceOnUse" x="0" y="0" width="24" height="24">
<rect width="24" height="24" fill="#D9D9D9"/>
</mask>
<g mask="url(#mask0_496_2225)">
<path d="M7 14.75H13.575C13.825 14.75 14.0125 14.6721 14.1375 14.5162C14.2625 14.3602 14.325 14.1888 14.325 14.0017C14.325 13.8147 14.2625 13.6427 14.1375 13.4855C14.0125 13.3285 13.825 13.25 13.575 13.25H7C6.7875 13.25 6.60942 13.3219 6.46575 13.4658C6.32192 13.6096 6.25 13.7878 6.25 14.0003C6.25 14.2129 6.32192 14.391 6.46575 14.5345C6.60942 14.6782 6.7875 14.75 7 14.75ZM7 10.75H11C11.2125 10.75 11.3906 10.6781 11.5343 10.5342C11.6781 10.3904 11.75 10.2122 11.75 9.99975C11.75 9.78708 11.6781 9.609 11.5343 9.4655C11.3906 9.32183 11.2125 9.25 11 9.25H7C6.7875 9.25 6.60942 9.32192 6.46575 9.46575C6.32192 9.60958 6.25 9.78775 6.25 10.0003C6.25 10.2129 6.32192 10.391 6.46575 10.5345C6.60942 10.6782 6.7875 10.75 7 10.75ZM4.30775 18.5C3.81058 18.5 3.385 18.323 3.031 17.969C2.677 17.615 2.5 17.1894 2.5 16.6923V7.30775C2.5 6.81058 2.677 6.385 3.031 6.031C3.385 5.677 3.81058 5.5 4.30775 5.5H19.6923C20.1894 5.5 20.615 5.677 20.969 6.031C21.323 6.385 21.5 6.81058 21.5 7.30775V8.94225C21.5 9.15475 21.4281 9.33292 21.2843 9.47675C21.1404 9.62042 20.9622 9.69225 20.7498 9.69225C20.5371 9.69225 20.359 9.62042 20.2155 9.47675C20.0718 9.33292 20 9.15475 20 8.94225V7.30775C20 7.21792 19.9712 7.14417 19.9135 7.0865C19.8558 7.02883 19.7821 7 19.6923 7H4.30775C4.21792 7 4.14417 7.02883 4.0865 7.0865C4.02883 7.14417 4 7.21792 4 7.30775V16.6923C4 16.7821 4.02883 16.8558 4.0865 16.9135C4.14417 16.9712 4.21792 17 4.30775 17H10.8942C11.1067 17 11.2849 17.0719 11.4288 17.2158C11.5724 17.3596 11.6442 17.5378 11.6442 17.7503C11.6442 17.9629 11.5724 18.141 11.4288 18.2845C11.2849 18.4282 11.1067 18.5 10.8942 18.5H4.30775ZM22.2268 12.127C22.3038 12.2047 22.3423 12.2901 22.3423 12.3832C22.3423 12.4764 22.3033 12.5619 22.2255 12.6398L21.3845 13.4808L20.1152 12.2115L20.9565 11.3707C21.0345 11.2927 21.1203 11.2537 21.2138 11.2537C21.3071 11.2537 21.3923 11.2922 21.4693 11.3692L22.2268 12.127ZM20.8038 14.0808L14.646 20.2385C14.5713 20.3128 14.4873 20.3686 14.3938 20.4057C14.3003 20.4429 14.2036 20.4615 14.1038 20.4615H13.5385C13.4358 20.4615 13.3461 20.423 13.2693 20.346C13.1923 20.2692 13.1538 20.1795 13.1538 20.077V19.5115C13.1538 19.4118 13.1724 19.3153 13.2098 19.2218C13.2469 19.1283 13.3027 19.0441 13.377 18.9693L19.5345 12.8115L20.8038 14.0808Z" fill="#032C28"/>
</g>
</svg>
