<svg width="24" height="24" viewBox="0 0 24 24" fill="none" xmlns="http://www.w3.org/2000/svg">
<mask id="mask0_496_2205" style="mask-type:alpha" maskUnits="userSpaceOnUse" x="0" y="0" width="24" height="24">
<rect width="24" height="24" fill="#D9D9D9"/>
</mask>
<g mask="url(#mask0_496_2205)">
<path d="M12 21.6923C11.5013 21.6923 11.0754 21.5157 10.7223 21.1625C10.3689 20.8093 10.1923 20.3833 10.1923 19.8845H13.8077C13.8077 20.3833 13.6311 20.8093 13.2778 21.1625C12.9246 21.5157 12.4987 21.6923 12 21.6923ZM6.30775 17.3848V9.923C6.30775 8.768 6.61542 7.7315 7.23075 6.8135C7.84608 5.8955 8.65958 5.20058 9.67125 4.72875C9.85958 4.63775 10.0297 4.63525 10.1817 4.72125C10.3336 4.80708 10.4468 4.93783 10.5213 5.1135C10.5956 5.28917 10.6064 5.47667 10.5538 5.676C10.5013 5.87533 10.35 6.05125 10.1 6.20375C9.40633 6.56792 8.85092 7.07208 8.43375 7.71625C8.01642 8.36058 7.80775 9.09617 7.80775 9.923V17.3848H16.1923V14.3153C16.1923 14.1024 16.2641 13.9243 16.4078 13.7808C16.5513 13.6371 16.7294 13.5653 16.9423 13.5653C17.1551 13.5653 17.3333 13.6371 17.477 13.7808C17.6205 13.9243 17.6923 14.1024 17.6923 14.3153V17.3848H18.75C18.9628 17.3848 19.141 17.4565 19.2845 17.6C19.4282 17.7437 19.5 17.9219 19.5 18.1348C19.5 18.3474 19.4282 18.5256 19.2845 18.6693C19.141 18.8128 18.9628 18.8845 18.75 18.8845H5.25C5.03717 18.8845 4.859 18.8128 4.7155 18.6693C4.57183 18.5256 4.5 18.3474 4.5 18.1348C4.5 17.9219 4.57183 17.7437 4.7155 17.6C4.859 17.4565 5.03717 17.3848 5.25 17.3848H6.30775ZM15.7578 10.1923C15.5001 10.1154 15.2581 10.0183 15.0318 9.901C14.8054 9.78367 14.591 9.6295 14.3885 9.4385L13.7885 9.64425C13.6232 9.69808 13.4619 9.69617 13.3048 9.6385C13.1478 9.58083 13.0237 9.48275 12.9327 9.34425L12.8 9.1C12.709 8.94483 12.6737 8.78108 12.6943 8.60875C12.7148 8.43625 12.7974 8.291 12.9423 8.173L13.3962 7.78475C13.3244 7.50392 13.2885 7.22308 13.2885 6.94225C13.2885 6.66158 13.3244 6.38083 13.3962 6.1L12.9423 5.7115C12.8039 5.6 12.7213 5.459 12.6943 5.2885C12.6672 5.118 12.6993 4.95517 12.7905 4.8L12.9578 4.5405C13.0487 4.402 13.1686 4.30392 13.3173 4.24625C13.4661 4.18858 13.6232 4.18667 13.7885 4.2405L14.3885 4.44625C14.5847 4.25525 14.7975 4.10108 15.027 3.98375C15.2565 3.86642 15.5001 3.76925 15.7578 3.69225L15.8595 3.102C15.8968 2.92633 15.9822 2.78208 16.1155 2.66925C16.2487 2.55642 16.4031 2.5 16.5788 2.5H16.8443C17.0199 2.5 17.1744 2.559 17.3077 2.677C17.4411 2.795 17.5263 2.94175 17.5635 3.11725L17.6652 3.69225C17.9231 3.76925 18.1667 3.86642 18.396 3.98375C18.6255 4.10108 18.8383 4.25525 19.0345 4.44625L19.6345 4.2405C19.8 4.18667 19.9613 4.18858 20.1182 4.24625C20.2752 4.30392 20.3993 4.402 20.4902 4.5405L20.623 4.78475C20.714 4.93975 20.7493 5.1035 20.7288 5.276C20.7083 5.44833 20.6256 5.5935 20.4808 5.7115L20.0268 6.1C20.0986 6.38083 20.1345 6.66158 20.1345 6.94225C20.1345 7.22308 20.0986 7.50392 20.0268 7.78475L20.4808 8.173C20.6192 8.28467 20.7019 8.42575 20.7288 8.59625C20.7558 8.76675 20.7237 8.9295 20.6327 9.0845L20.4653 9.34425C20.3743 9.48275 20.2544 9.58083 20.1058 9.6385C19.9571 9.69617 19.8 9.69808 19.6345 9.64425L19.0345 9.4385C18.832 9.6295 18.6176 9.78367 18.3913 9.901C18.1651 10.0183 17.9231 10.1154 17.6652 10.1923L17.5635 10.7828C17.5263 10.9583 17.4411 11.1024 17.3077 11.2153C17.1744 11.3281 17.0199 11.3845 16.8443 11.3845H16.5788C16.4031 11.3845 16.2487 11.3256 16.1155 11.2078C15.9822 11.0898 15.8968 10.9429 15.8595 10.7673L15.7578 10.1923ZM16.7115 9.01925C17.2872 9.01925 17.7773 8.817 18.1818 8.4125C18.5863 8.008 18.7885 7.51792 18.7885 6.94225C18.7885 6.36658 18.5863 5.8765 18.1818 5.472C17.7773 5.0675 17.2872 4.86525 16.7115 4.86525C16.1358 4.86525 15.6458 5.0675 15.2413 5.472C14.8368 5.8765 14.6345 6.36658 14.6345 6.94225C14.6345 7.51792 14.8368 8.008 15.2413 8.4125C15.6458 8.817 16.1358 9.01925 16.7115 9.01925Z" fill="#032C28"/>
</g>
</svg>
