<svg width="32" height="32" viewBox="0 0 32 32" fill="none" xmlns="http://www.w3.org/2000/svg">
<mask id="mask0_1471_295" style="mask-type:alpha" maskUnits="userSpaceOnUse" x="0" y="0" width="32" height="32">
<rect width="32" height="32" fill="#D9D9D9"/>
</mask>
<g mask="url(#mask0_1471_295)">
<path d="M10.5 8.99504L14.105 4.26404C14.3444 3.94382 14.6286 3.70871 14.9577 3.55871C15.2868 3.40849 15.6343 3.33337 16 3.33337C16.3658 3.33337 16.7133 3.40849 17.0424 3.55871C17.3715 3.70871 17.6557 3.94382 17.895 4.26404L21.5 8.99504L27.0127 10.8564C27.5394 11.0257 27.95 11.3243 28.2447 11.752C28.5396 12.18 28.687 12.6527 28.687 13.17C28.687 13.4089 28.6522 13.647 28.5824 13.8844C28.5126 14.1217 28.3979 14.3492 28.2384 14.5667L24.6487 19.5487L24.782 24.836C24.8043 25.538 24.5728 26.1297 24.0877 26.611C23.6028 27.0926 23.0377 27.3334 22.3924 27.3334C22.3735 27.3334 22.1504 27.3043 21.723 27.246L16 25.605L10.277 27.246C10.1659 27.2905 10.0513 27.3162 9.93304 27.323C9.81482 27.3299 9.70637 27.3334 9.60771 27.3334C8.95637 27.3334 8.38971 27.0926 7.90771 26.611C7.42571 26.1297 7.19582 25.538 7.21804 24.836L7.35137 19.5154L3.78204 14.5667C3.62249 14.3483 3.50782 14.1199 3.43804 13.8817C3.36826 13.6433 3.33337 13.4049 3.33337 13.1667C3.33337 12.6638 3.47982 12.1962 3.77271 11.7637C4.0656 11.3313 4.47471 11.0246 5.00004 10.8437L10.5 8.99504Z" fill="#F8F8F8"/>
<path d="M10.5 8.99504L14.105 4.26404C14.3444 3.94382 14.6286 3.70871 14.9577 3.55871C15.2868 3.40849 15.6343 3.33337 16 3.33337C16.3658 3.33337 16.7133 3.40849 17.0424 3.55871C17.3715 3.70871 17.6557 3.94382 17.895 4.26404L21.5 8.99504L27.0127 10.8564C27.5394 11.0257 27.95 11.3243 28.2447 11.752C28.5396 12.18 28.687 12.6527 28.687 13.17C28.687 13.4089 28.6522 13.647 28.5824 13.8844C28.5126 14.1217 28.3979 14.3492 28.2384 14.5667L24.6487 19.5487L24.782 24.836C24.8043 25.538 24.5728 26.1297 24.0877 26.611C23.6028 27.0926 23.0377 27.3334 22.3924 27.3334C22.3735 27.3334 22.1504 27.3043 21.723 27.246L16 25.605L10.277 27.246C10.1659 27.2905 10.0513 27.3162 9.93304 27.323C9.81482 27.3299 9.70637 27.3334 9.60771 27.3334C8.95637 27.3334 8.38971 27.0926 7.90771 26.611C7.42571 26.1297 7.19582 25.538 7.21804 24.836L7.35137 19.5154L3.78204 14.5667C3.62249 14.3483 3.50782 14.1199 3.43804 13.8817C3.36826 13.6433 3.33337 13.4049 3.33337 13.1667C3.33337 12.6638 3.47982 12.1962 3.77271 11.7637C4.0656 11.3313 4.47471 11.0246 5.00004 10.8437L10.5 8.99504ZM11.736 10.718L5.64104 12.7487C5.51282 12.7914 5.42526 12.879 5.37837 13.0117C5.33126 13.1442 5.35049 13.2659 5.43604 13.377L9.36404 18.9207L9.21804 24.877C9.20937 25.0224 9.2606 25.1377 9.37171 25.223C9.48282 25.3086 9.60682 25.33 9.74371 25.2874L16 23.5307L22.2564 25.3207C22.3933 25.3634 22.5173 25.3419 22.6284 25.2564C22.7395 25.171 22.7907 25.0557 22.782 24.9104L22.636 18.9207L26.564 13.4437C26.6496 13.3326 26.6688 13.2108 26.6217 13.0784C26.5748 12.9457 26.4873 12.858 26.359 12.8154L20.264 10.718L16.3207 5.51304C16.2436 5.40171 16.1367 5.34604 16 5.34604C15.8634 5.34604 15.7565 5.40171 15.6794 5.51304L11.736 10.718Z" fill="#032C28"/>
</g>
</svg>
