<svg width="32" height="32" viewBox="0 0 32 32" fill="none" xmlns="http://www.w3.org/2000/svg">
<mask id="mask0_628_2030" style="mask-type:alpha" maskUnits="userSpaceOnUse" x="0" y="0" width="32" height="32">
<rect width="32" height="32" fill="#D9D9D9"/>
</mask>
<g mask="url(#mask0_628_2030)">
<path d="M10.5 8.99498L14.105 4.26398C14.3443 3.94376 14.6286 3.70865 14.9577 3.55865C15.2868 3.40842 15.6342 3.33331 16 3.33331C16.3658 3.33331 16.7132 3.40842 17.0423 3.55865C17.3715 3.70865 17.6557 3.94376 17.895 4.26398L21.5 8.99498L27.0127 10.8563C27.5393 11.0256 27.95 11.3242 28.2447 11.752C28.5396 12.18 28.687 12.6526 28.687 13.17C28.687 13.4089 28.6521 13.647 28.5823 13.8843C28.5126 14.1216 28.3979 14.3491 28.2383 14.5666L24.6487 19.5486L24.782 24.836C24.8042 25.538 24.5728 26.1296 24.0877 26.611C23.6028 27.0925 23.0377 27.3333 22.3923 27.3333C22.3735 27.3333 22.1503 27.3042 21.723 27.246L16 25.605L10.277 27.246C10.1659 27.2904 10.0512 27.3161 9.93301 27.323C9.81479 27.3299 9.70634 27.3333 9.60768 27.3333C8.95634 27.3333 8.38968 27.0925 7.90768 26.611C7.42568 26.1296 7.19579 25.538 7.21801 24.836L7.35134 19.5153L3.78201 14.5666C3.62245 14.3482 3.50779 14.1199 3.43801 13.8816C3.36823 13.6432 3.33334 13.4049 3.33334 13.1666C3.33334 12.6638 3.47979 12.1961 3.77268 11.7636C4.06557 11.3312 4.47468 11.0245 5.00001 10.8436L10.5 8.99498Z" fill="#FEE200"/>
<path d="M10.5 8.99498L14.105 4.26398C14.3443 3.94376 14.6286 3.70865 14.9577 3.55865C15.2868 3.40842 15.6342 3.33331 16 3.33331C16.3658 3.33331 16.7132 3.40842 17.0423 3.55865C17.3715 3.70865 17.6557 3.94376 17.895 4.26398L21.5 8.99498L27.0127 10.8563C27.5393 11.0256 27.95 11.3242 28.2447 11.752C28.5396 12.18 28.687 12.6526 28.687 13.17C28.687 13.4089 28.6521 13.647 28.5823 13.8843C28.5126 14.1216 28.3979 14.3491 28.2383 14.5666L24.6487 19.5486L24.782 24.836C24.8042 25.538 24.5728 26.1296 24.0877 26.611C23.6028 27.0925 23.0377 27.3333 22.3923 27.3333C22.3735 27.3333 22.1503 27.3042 21.723 27.246L16 25.605L10.277 27.246C10.1659 27.2904 10.0512 27.3161 9.93301 27.323C9.81479 27.3299 9.70634 27.3333 9.60768 27.3333C8.95634 27.3333 8.38968 27.0925 7.90768 26.611C7.42568 26.1296 7.19579 25.538 7.21801 24.836L7.35134 19.5153L3.78201 14.5666C3.62245 14.3482 3.50779 14.1199 3.43801 13.8816C3.36823 13.6432 3.33334 13.4049 3.33334 13.1666C3.33334 12.6638 3.47979 12.1961 3.77268 11.7636C4.06557 11.3312 4.47468 11.0245 5.00001 10.8436L10.5 8.99498ZM11.736 10.718L5.64101 12.7486C5.51279 12.7913 5.42523 12.879 5.37834 13.0116C5.33123 13.1441 5.35045 13.2659 5.43601 13.377L9.36401 18.9206L9.21801 24.877C9.20934 25.0223 9.26057 25.1376 9.37168 25.223C9.48279 25.3085 9.60679 25.33 9.74368 25.2873L16 23.5306L22.2563 25.3206C22.3932 25.3633 22.5172 25.3419 22.6283 25.2563C22.7395 25.171 22.7907 25.0556 22.782 24.9103L22.636 18.9206L26.564 13.4436C26.6496 13.3325 26.6688 13.2108 26.6217 13.0783C26.5748 12.9456 26.4872 12.858 26.359 12.8153L20.264 10.718L16.3207 5.51298C16.2436 5.40165 16.1367 5.34598 16 5.34598C15.8633 5.34598 15.7565 5.40165 15.6793 5.51298L11.736 10.718Z" fill="#032C28"/>
</g>
</svg>
