<svg width="141" height="30" viewBox="0 0 141 30" fill="none" xmlns="http://www.w3.org/2000/svg">
<path d="M134.094 19.3425V12.299H132.148C130.93 12.299 129.943 11.3058 129.943 10.0806H138.795C140.013 10.0806 141 11.0738 141 12.299H136.849V19.3425H134.094Z" fill="#032C28"/>
<path d="M117.692 22.6701V12.6124C117.692 11.2141 118.819 10.0806 120.208 10.0806V11.8553C120.563 11.2021 121.09 10.7153 121.788 10.3948C122.486 10.0621 123.312 9.8957 124.267 9.8957C125.369 9.8957 126.312 10.1052 127.096 10.5242C127.879 10.9433 128.479 11.5102 128.896 12.225C129.312 12.9399 129.52 13.7656 129.52 14.7023C129.52 15.6143 129.312 16.4339 128.896 17.161C128.492 17.8881 127.904 18.4674 127.133 18.8988C126.361 19.3178 125.412 19.5273 124.286 19.5273C123.355 19.5273 122.559 19.3671 121.898 19.0467C121.249 18.7139 120.765 18.2702 120.447 17.7156V22.6701H117.692ZM123.606 17.4198C124.622 17.4198 125.406 17.161 125.957 16.6434C126.508 16.1134 126.784 15.4602 126.784 14.6838C126.784 13.9073 126.508 13.2726 125.957 12.7796C125.418 12.2743 124.635 12.0217 123.606 12.0217C122.578 12.0217 121.782 12.2743 121.218 12.7796C120.667 13.2726 120.392 13.9073 120.392 14.6838C120.392 15.4602 120.667 16.1134 121.218 16.6434C121.782 17.161 122.578 17.4198 123.606 17.4198Z" fill="#032C28"/>
<path d="M109.195 19.5273C108.363 19.5273 107.628 19.3979 106.991 19.1391C106.355 18.8803 105.853 18.5229 105.485 18.0669C105.118 17.6108 104.934 17.0994 104.934 16.5325C104.934 15.9409 105.142 15.4356 105.559 15.0165C105.975 14.5975 106.636 14.2771 107.542 14.0552C108.448 13.8211 109.63 13.704 111.087 13.704H113.42V15.3493H111.234C110.561 15.3493 109.991 15.3739 109.526 15.4232C109.073 15.4602 108.706 15.5218 108.424 15.6081C108.142 15.6821 107.94 15.793 107.818 15.9409C107.695 16.0764 107.634 16.2428 107.634 16.44C107.634 16.8344 107.824 17.1179 108.203 17.2904C108.583 17.463 109.097 17.5492 109.746 17.5492C110.322 17.5492 110.861 17.4506 111.363 17.2534C111.865 17.0562 112.263 16.7851 112.556 16.44C112.863 16.0949 113.016 15.7252 113.016 15.3308V13.4821C113.016 12.9399 112.771 12.5578 112.281 12.336C111.791 12.1018 111.087 11.9847 110.169 11.9847C109.459 11.9847 108.767 12.0648 108.093 12.225C107.02 12.4651 105.803 12.0388 105.412 11.0049C105.914 10.7584 106.44 10.5551 106.991 10.3948C107.542 10.2346 108.118 10.1114 108.718 10.0251C109.318 9.93883 109.924 9.8957 110.536 9.8957C111.601 9.8957 112.514 10.0374 113.273 10.3209C114.044 10.592 114.638 11.0172 115.054 11.5965C115.471 12.1757 115.679 12.9337 115.679 13.8704V17.0324C115.679 18.3082 114.651 19.3424 113.383 19.3424V17.3644H113.365C113.107 17.7711 112.789 18.1408 112.409 18.4736C112.03 18.8063 111.577 19.0651 111.05 19.25C110.524 19.4349 109.905 19.5273 109.195 19.5273Z" fill="#032C28"/>
<path d="M89.8192 19.3425V10.0806H91.2018C92.0521 10.0806 92.8507 10.4915 93.3485 11.1852L96.3762 15.4048L99.3496 11.2001C99.8463 10.4977 100.65 10.0806 101.507 10.0806H102.878V19.3425H100.362V13.0939H100.307L96.9639 17.9375H95.7333L92.3758 13.0991C92.3735 13.0959 92.3698 13.0939 92.3659 13.0939C92.3592 13.0939 92.3538 13.0994 92.3538 13.1061V19.3425H89.8192Z" fill="#032C28"/>
<path d="M74.0062 21.8012V17.1056H75.3103C75.6531 16.7235 75.9225 16.3353 76.1184 15.9409C76.3266 15.5342 76.4735 15.072 76.5592 14.5544C76.6572 14.0244 76.7061 13.402 76.7061 12.6872C76.7061 11.2476 77.866 10.0806 79.2968 10.0806H85.9263V17.1056H87.8364V21.8012H85.4855V19.3425H76.3388V21.8012H74.0062ZM77.9 17.161H83.3366V12.225H79.7803C79.4012 12.225 79.0938 12.5343 79.0938 12.9157V13.2973C79.0938 14.0491 78.9898 14.7577 78.7816 15.4233C78.5857 16.0888 78.2918 16.668 77.9 17.161Z" fill="#032C28"/>
<path d="M65.8674 22.6701L68.2184 18.2887V20.3962L62.892 10.0806H64.19C65.1951 10.0806 66.1136 10.6532 66.561 11.5589L69.1367 16.7728H69.1183L72.3325 10.0806H75.161L69.4713 21.2234C69.0178 22.1116 68.1087 22.6701 67.1162 22.6701H65.8674Z" fill="#032C28"/>
<path d="M45.5717 19.5273C44.3962 19.5273 43.3738 19.3301 42.5044 18.9357C41.6473 18.529 40.9739 17.9744 40.4841 17.2719C40.0065 16.5571 39.7678 15.719 39.7678 14.7577C39.7678 13.7964 40.0065 12.9522 40.4841 12.225C40.9739 11.4856 41.6534 10.9125 42.5228 10.5058C43.3922 10.0991 44.4146 9.8957 45.59 9.8957C46.4839 9.8957 47.2982 10.0066 48.0328 10.2285C48.7675 10.438 49.3675 10.7214 49.8328 11.0789L49.6073 11.5895C49.2606 12.3747 48.2993 12.6587 47.4818 12.4099C46.9676 12.2497 46.4288 12.1696 45.8655 12.1696C44.8125 12.1696 43.9921 12.4037 43.4044 12.8721C42.8289 13.3281 42.5412 13.9566 42.5412 14.7577C42.5412 15.5588 42.8289 16.175 43.4044 16.6064C43.9921 17.0378 44.8003 17.2534 45.8288 17.2534C46.4288 17.2534 46.9798 17.1733 47.4818 17.0131C47.9961 16.8529 48.4675 16.6372 48.8961 16.3661L49.8144 18.3811C49.3246 18.7262 48.7246 19.0035 48.0145 19.213C47.3043 19.4226 46.49 19.5273 45.5717 19.5273Z" fill="#032C28"/>
<path d="M55.191 19.3425V12.299H53.2449C52.0272 12.299 51.0401 11.3058 51.0401 10.0806H59.8921C61.1098 10.0806 62.0969 11.0738 62.0969 12.299H57.946V19.3425H55.191Z" fill="#032C28"/>
<path fill-rule="evenodd" clip-rule="evenodd" d="M1.34905e-05 15C-6.48968e-05 14.9412 0.000198249 14.8822 0.000804816 14.8232C0.0863999 6.52068 6.72227 -0.0361257 15.0025 0.000149794C15.0219 0.00023484 15.0413 0.000356001 15.0607 0.000513214L15.0607 15H1.34905e-05Z" fill="#032C28"/>
<path fill-rule="evenodd" clip-rule="evenodd" d="M30.1214 0.000164C30.1215 0.0590099 30.1213 0.117934 30.1206 0.176929C30.0351 8.47949 23.3992 15.0363 15.119 15C15.0996 14.9999 15.0801 14.9998 15.0607 14.9997L15.0607 0.000164H30.1214Z" fill="#032C28"/>
<path fill-rule="evenodd" clip-rule="evenodd" d="M1.34905e-05 15C-6.48968e-05 15.0588 0.000198249 15.1178 0.000804816 15.1768C0.0863999 23.4793 6.72227 30.0361 15.0025 29.9999C15.0219 29.9998 15.0413 29.9996 15.0607 29.9995L15.0607 15H1.34905e-05Z" fill="#032C28"/>
<path fill-rule="evenodd" clip-rule="evenodd" d="M30.1214 15C30.1215 15.0588 30.1213 15.1178 30.1206 15.1768C30.0351 23.4793 23.3992 30.0361 15.119 29.9999C15.0996 29.9998 15.0801 29.9996 15.0607 29.9995L15.0607 15L30.1214 15Z" fill="#032C28"/>
</svg>
