<svg width="282" height="368" viewBox="0 0 282 368" fill="none" xmlns="http://www.w3.org/2000/svg">
<g clip-path="url(#clip0_452_1506)">
<rect width="282" height="368" rx="30" fill="url(#paint0_linear_452_1506)"/>
<path fill-rule="evenodd" clip-rule="evenodd" d="M-124 156C-124 155.67 -123.999 155.34 -123.995 155.01C-123.422 108.516 -79.0195 71.7977 -23.6145 72.0008C-23.4846 72.0013 -23.3546 72.002 -23.2248 72.0029L-23.2248 156H-124Z" fill="#F5052E"/>
<path fill-rule="evenodd" clip-rule="evenodd" d="M75.9999 72C76.0004 72.3296 75.9987 72.6595 75.9946 72.9899C75.4219 119.484 31.0195 156.202 -24.3855 155.999C-24.5155 155.999 -24.6454 155.998 -24.7752 155.997L-24.7752 72H75.9999Z" fill="#F5052E"/>
<path fill-rule="evenodd" clip-rule="evenodd" d="M-124 156C-124 156.33 -123.999 156.66 -123.995 156.99C-123.422 203.484 -79.0195 240.202 -23.6145 239.999C-23.4846 239.999 -23.3546 239.998 -23.2248 239.997L-23.2248 156H-124Z" fill="#F5052E"/>
<path fill-rule="evenodd" clip-rule="evenodd" d="M75.9999 156C76.0004 156.33 75.9987 156.66 75.9946 156.99C75.4219 203.484 31.0195 240.202 -24.3855 239.999C-24.5155 239.999 -24.6454 239.998 -24.7752 239.997L-24.7752 156H75.9999Z" fill="#F5052E"/>
<path fill-rule="evenodd" clip-rule="evenodd" d="M157 -25C156.999 -25.4943 157.002 -25.9893 157.008 -26.4849C157.87 -96.2263 224.696 -151.303 308.08 -150.999C308.276 -150.998 308.471 -150.997 308.667 -150.996L308.667 -25H157Z" fill="#FEE200"/>
<path fill-rule="evenodd" clip-rule="evenodd" d="M458 -151C458.001 -150.506 457.998 -150.011 457.992 -149.515C457.13 -79.7736 390.304 -24.6965 306.92 -25.0013C306.724 -25.002 306.529 -25.003 306.333 -25.0043L306.333 -151H458Z" fill="#FEE200"/>
<path fill-rule="evenodd" clip-rule="evenodd" d="M157 -25C156.999 -24.5057 157.002 -24.0107 157.008 -23.5151C157.87 46.2263 224.696 101.303 308.08 100.999C308.276 100.998 308.471 100.997 308.667 100.996L308.667 -25H157Z" fill="#FEE200"/>
<path fill-rule="evenodd" clip-rule="evenodd" d="M458 -25C458.001 -24.5057 457.998 -24.0107 457.992 -23.5151C457.13 46.2263 390.304 101.303 306.92 100.999C306.724 100.998 306.529 100.997 306.333 100.996L306.333 -25H458Z" fill="#FEE200"/>
</g>
<defs>
<linearGradient id="paint0_linear_452_1506" x1="0" y1="0" x2="364.043" y2="120.843" gradientUnits="userSpaceOnUse">
<stop stop-color="#FFD3FF"/>
<stop offset="1" stop-color="#FFB9FF"/>
</linearGradient>
<clipPath id="clip0_452_1506">
<rect width="282" height="368" rx="30" fill="white"/>
</clipPath>
</defs>
</svg>
