<svg width="250" height="220" viewBox="0 0 250 220" fill="none" xmlns="http://www.w3.org/2000/svg">
<path fill-rule="evenodd" clip-rule="evenodd" d="M248.93 127.282C248.97 126.876 249.007 126.469 249.041 126.061C253.817 68.6531 203.545 18.1511 135.392 11.8901C135.232 11.8754 135.073 11.861 134.913 11.8468L125.012 115.439L248.93 127.282Z" fill="#FFB9FF"/>
<path fill-rule="evenodd" clip-rule="evenodd" d="M10.9948 -0.00205756C10.9553 0.404292 10.9186 0.811446 10.8846 1.21937C6.10851 58.6271 56.3801 109.129 124.533 115.39C124.693 115.405 124.853 115.419 125.012 115.433L134.913 11.8417L10.9948 -0.00205756Z" fill="#FFB9FF"/>
<path fill-rule="evenodd" clip-rule="evenodd" d="M248.93 127.282C248.892 127.689 248.851 128.095 248.807 128.502C242.623 185.775 183.695 225.84 115.59 219.078C115.43 219.063 115.271 219.046 115.111 219.03L125.012 115.439L248.93 127.282Z" fill="#FFB9FF"/>
<path fill-rule="evenodd" clip-rule="evenodd" d="M1.09335 103.595C1.05387 104.001 1.01713 104.408 0.983186 104.816C-3.79295 162.224 46.4786 212.726 114.632 218.987C114.791 219.002 114.951 219.016 115.111 219.03L125.012 115.439L1.09335 103.595Z" fill="#FFB9FF"/>
<path d="M114.973 53.2828C113.69 57.1137 115.791 61.2542 119.666 62.5309C123.54 63.8076 127.72 61.7371 129.003 57.9062C130.285 54.0754 128.184 49.9348 124.31 48.6581C120.435 47.3814 116.255 49.452 114.973 53.2828Z" fill="#272727"/>
<path d="M97.9746 37.9166C96.6922 41.7474 98.7933 45.8879 102.668 47.1647C106.542 48.4414 110.722 46.3708 112.004 42.54C113.287 38.7091 111.186 34.5686 107.312 33.2919C103.437 32.0152 99.257 34.0857 97.9746 37.9166Z" fill="#272727"/>
</svg>
