<svg width="100" height="100" viewBox="0 0 100 100" fill="none" xmlns="http://www.w3.org/2000/svg">
<mask id="mask0_478_578" style="mask-type:alpha" maskUnits="userSpaceOnUse" x="0" y="0" width="100" height="100">
<rect width="100" height="100" fill="#D9D9D9"/>
</mask>
<g mask="url(#mask0_478_578)">
<path d="M46.8751 23.0927V18.4292C46.8751 17.5431 47.1744 16.8007 47.773 16.2021C48.3709 15.6042 49.1133 15.3052 50.0001 15.3052C50.8869 15.3052 51.6293 15.6042 52.2272 16.2021C52.8258 16.8007 53.1251 17.5431 53.1251 18.4292V22.9646C55.2619 23.2743 57.2439 24.001 59.0709 25.1448C60.8973 26.2878 62.4383 27.7247 63.6939 29.4552C64.2439 30.1872 64.4668 30.9792 64.3626 31.8312C64.2584 32.6833 63.8407 33.3844 63.1095 33.9344C62.3775 34.4844 61.5855 34.7073 60.7334 34.6031C59.8814 34.499 59.1803 34.0809 58.6303 33.349C57.6845 31.9816 56.4702 30.9014 54.9876 30.1083C53.5057 29.3153 51.9126 28.9187 50.2084 28.9187C49.2577 28.9187 48.331 29.0628 47.4282 29.351C46.5254 29.6392 45.6734 30.0371 44.872 30.5448C44.0546 30.951 43.248 31.0125 42.4522 30.7292C41.6564 30.4458 41.0553 29.8955 40.6491 29.0781C40.2435 28.2615 40.1754 27.4549 40.4449 26.6583C40.7143 25.8625 41.2577 25.2618 42.0751 24.8562C42.7911 24.3646 43.5577 23.9826 44.3751 23.7104C45.1925 23.4375 46.0258 23.2316 46.8751 23.0927ZM79.3428 88.125L63.2532 72.0354C62.1581 73.3708 60.6411 74.4819 58.7022 75.3687C56.7626 76.2556 54.9036 76.7417 53.1251 76.8271V81.4906C53.1251 82.3774 52.8258 83.1198 52.2272 83.7177C51.6293 84.3163 50.8869 84.6156 50.0001 84.6156C49.1133 84.6156 48.3709 84.3163 47.773 83.7177C47.1744 83.1198 46.8751 82.3774 46.8751 81.4906V76.6187C43.8195 75.9347 41.2327 74.7007 39.1147 72.9167C36.9966 71.1326 35.2834 68.8542 33.9751 66.0812C33.5793 65.2375 33.5084 64.3722 33.7626 63.4854C34.0161 62.5986 34.5647 61.9576 35.4084 61.5625C36.2689 61.1674 37.1251 61.1378 37.9772 61.474C38.8293 61.8108 39.4741 62.401 39.9116 63.2448C40.9268 65.4295 42.3466 67.2406 44.1709 68.6781C45.9952 70.1149 48.2161 70.8333 50.8334 70.8333C52.4577 70.8333 53.9307 70.5368 55.2522 69.9437C56.5744 69.3507 57.7352 68.5413 58.7345 67.5156L11.8751 20.6573C11.298 20.0802 11.0029 19.3549 10.9897 18.4812C10.9765 17.6083 11.2716 16.8701 11.8751 16.2667C12.4786 15.6625 13.2105 15.3604 14.0709 15.3604C14.9307 15.3604 15.6626 15.6625 16.2668 16.2667L83.7334 83.7333C84.3105 84.3104 84.6057 85.0358 84.6189 85.9094C84.6327 86.783 84.3376 87.5215 83.7334 88.125C83.13 88.7285 82.3984 89.0302 81.5387 89.0302C80.6782 89.0302 79.9463 88.7285 79.3428 88.125Z" fill="#032C28"/>
</g>
</svg>
