<svg width="100" height="100" viewBox="0 0 100 100" fill="none" xmlns="http://www.w3.org/2000/svg">
<mask id="mask0_478_549" style="mask-type:alpha" maskUnits="userSpaceOnUse" x="0" y="0" width="100" height="100">
<rect width="100" height="100" fill="#D9D9D9"/>
</mask>
<g mask="url(#mask0_478_549)">
<path d="M31.9313 45.0718C28.291 45.0718 25.184 43.785 22.6104 41.2114C20.0368 38.6385 18.75 35.5315 18.75 31.8905C18.75 28.2503 20.0368 25.1433 22.6104 22.5697C25.184 19.9968 28.291 18.7103 31.9313 18.7103C35.5715 18.7103 38.6785 19.9968 41.2521 22.5697C43.8257 25.1433 45.1125 28.2503 45.1125 31.8905C45.1125 35.5315 43.8257 38.6385 41.2521 41.2114C38.6785 43.785 35.5715 45.0718 31.9313 45.0718ZM31.9292 38.8218C33.8535 38.8218 35.4899 38.1482 36.8385 36.801C38.1878 35.4537 38.8625 33.818 38.8625 31.8937C38.8625 29.9687 38.1889 28.3319 36.8417 26.9832C35.4944 25.6346 33.8583 24.9603 31.9333 24.9603C30.009 24.9603 28.3722 25.6339 27.0229 26.9812C25.6743 28.3284 25 29.9641 25 31.8885C25 33.8135 25.6736 35.4503 27.0208 36.7989C28.3681 38.1475 30.0042 38.8218 31.9292 38.8218ZM68.1094 81.2499C64.4684 81.2499 61.3615 79.9631 58.7885 77.3895C56.2149 74.8159 54.9281 71.7089 54.9281 68.0687C54.9281 64.4284 56.2149 61.3214 58.7885 58.7478C61.3615 56.1742 64.4684 54.8874 68.1094 54.8874C71.7496 54.8874 74.8566 56.1742 77.4302 58.7478C80.0031 61.3214 81.2896 64.4284 81.2896 68.0687C81.2896 71.7089 80.0031 74.8159 77.4302 77.3895C74.8566 79.9631 71.7496 81.2499 68.1094 81.2499ZM68.1062 74.9999C70.0312 74.9999 71.6681 74.3263 73.0167 72.9791C74.3653 71.6319 75.0396 69.9957 75.0396 68.0707C75.0396 66.1464 74.366 64.51 73.0187 63.1614C71.6715 61.8121 70.0358 61.1374 68.1115 61.1374C66.1865 61.1374 64.5497 61.811 63.201 63.1582C61.8524 64.5055 61.1781 66.1416 61.1781 68.0666C61.1781 69.9909 61.8517 71.6277 63.199 72.977C64.5462 74.3256 66.1819 74.9999 68.1062 74.9999ZM21.3458 78.6541C20.7694 78.077 20.4812 77.3496 20.4812 76.4718C20.4812 75.594 20.7694 74.8711 21.3458 74.303L74.3833 21.2666C74.9597 20.6895 75.6781 20.4075 76.5385 20.4207C77.3983 20.4339 78.1167 20.7291 78.6937 21.3062C79.2708 21.8832 79.5594 22.6107 79.5594 23.4885C79.5594 24.3662 79.2708 25.0891 78.6937 25.6572L25.6573 78.6937C25.0802 79.2707 24.3618 79.5527 23.5021 79.5395C22.6417 79.5256 21.9229 79.2305 21.3458 78.6541Z" fill="#032C28"/>
</g>
</svg>
