<svg width="100" height="100" viewBox="0 0 100 100" fill="none" xmlns="http://www.w3.org/2000/svg">
<mask id="mask0_478_584" style="mask-type:alpha" maskUnits="userSpaceOnUse" x="0" y="0" width="100" height="100">
<rect width="100" height="100" fill="#D9D9D9"/>
</mask>
<g mask="url(#mask0_478_584)">
<path d="M25.849 85.4167C24.3324 85.4167 22.8876 84.901 21.5147 83.8698C20.1417 82.8392 19.239 81.5785 18.8063 80.0875C17.0702 74.0944 15.6667 69.016 14.5959 64.8521C13.5244 60.6875 12.6789 57.0976 12.0595 54.0823C11.44 51.067 11.0112 48.4361 10.773 46.1896C10.5355 43.9437 10.4167 41.7417 10.4167 39.5833C10.4167 33.7819 12.4386 28.8594 16.4824 24.8156C20.5261 20.7719 25.4487 18.75 31.2501 18.75H53.1251C55.0001 16.25 57.2917 14.2361 60.0001 12.7083C62.7084 11.1805 65.6251 10.4167 68.7501 10.4167C69.8987 10.4167 70.8803 10.8239 71.6949 11.6385C72.5095 12.4531 72.9167 13.4347 72.9167 14.5833C72.9167 14.8667 72.8779 15.143 72.8001 15.4125C72.723 15.6826 72.6417 15.951 72.5563 16.2177C72.2515 17.0351 71.9577 17.9191 71.6751 18.8698C71.3917 19.8212 71.1272 21.0285 70.8813 22.4917L81.723 33.3333H85.8167C86.8911 33.3333 87.7872 33.6927 88.5053 34.4114C89.224 35.1295 89.5834 36.0257 89.5834 37.1V56.05C89.5834 56.8722 89.3497 57.6038 88.8824 58.2448C88.415 58.8858 87.7699 59.3531 86.947 59.6469L78.2126 62.5239L72.9647 80.0396C72.4626 81.6854 71.549 82.993 70.224 83.9625C68.8997 84.9319 67.3935 85.4167 65.7053 85.4167H59.6157C57.5379 85.4167 55.7629 84.6809 54.2907 83.2094C52.8192 81.7371 52.0834 79.9621 52.0834 77.8844V77.0833H39.5834V77.8844C39.5834 79.9621 38.8477 81.7371 37.3761 83.2094C35.9039 84.6809 34.1289 85.4167 32.0511 85.4167H25.849ZM26.0417 79.1667H32.0511C32.4254 79.1667 32.7327 79.0465 32.973 78.8062C33.2133 78.566 33.3334 78.2587 33.3334 77.8844V70.8333H58.3334V77.8844C58.3334 78.2587 58.4536 78.566 58.6938 78.8062C58.9341 79.0465 59.2414 79.1667 59.6157 79.1667H65.7053C65.999 79.1667 66.2595 79.0864 66.4865 78.926C66.7136 78.7656 66.8671 78.5385 66.947 78.2448L73.1251 57.7083L83.3334 54.2708V39.5833H79.1667L64.5834 25C64.5834 23.691 64.6768 22.35 64.8636 20.9771C65.0504 19.6049 65.331 18.3201 65.7053 17.1229C63.7713 17.6521 62.0206 18.6271 60.4532 20.0479C58.8851 21.4687 57.7272 23.1194 56.9792 25H31.2501C27.2223 25 23.7848 26.4236 20.9376 29.2708C18.0904 32.118 16.6667 35.5555 16.6667 39.5833C16.6667 42.3771 17.3692 47.1354 18.774 53.8583C20.1789 60.5812 22.1608 68.6833 24.7199 78.1646C24.7997 78.4583 24.9667 78.699 25.2209 78.8865C25.4744 79.0733 25.748 79.1667 26.0417 79.1667ZM66.6667 45.3521C67.6869 45.3521 68.5563 44.993 69.2751 44.275C69.9931 43.5562 70.3522 42.6868 70.3522 41.6667C70.3522 40.6465 69.9931 39.7771 69.2751 39.0583C68.5563 38.3403 67.6869 37.9812 66.6667 37.9812C65.6466 37.9812 64.7772 38.3403 64.0584 39.0583C63.3404 39.7771 62.9813 40.6465 62.9813 41.6667C62.9813 42.6868 63.3404 43.5562 64.0584 44.275C64.7772 44.993 65.6466 45.3521 66.6667 45.3521ZM51.0417 36.4583C51.9286 36.4583 52.6709 36.159 53.2688 35.5604C53.8674 34.9625 54.1667 34.2201 54.1667 33.3333C54.1667 32.4465 53.8674 31.7042 53.2688 31.1062C52.6709 30.5076 51.9286 30.2083 51.0417 30.2083H36.4584C35.5716 30.2083 34.8292 30.5076 34.2313 31.1062C33.6327 31.7042 33.3334 32.4465 33.3334 33.3333C33.3334 34.2201 33.6327 34.9625 34.2313 35.5604C34.8292 36.159 35.5716 36.4583 36.4584 36.4583H51.0417Z" fill="#032C28"/>
</g>
</svg>
