<svg width="221" height="162" viewBox="0 0 221 162" fill="none" xmlns="http://www.w3.org/2000/svg">
<path fill-rule="evenodd" clip-rule="evenodd" d="M60.2427 161.753C45.5059 151.022 43.305 129.892 55.514 116.355L79.9802 89.2263C76.5749 91.2017 72.8996 92.807 68.9647 94.0457L68.9272 94.0575L68.8896 94.0687C61.4202 96.2818 53.4532 97.3713 45.0135 97.3713C33.4272 97.3713 23.6576 95.0604 16.1521 89.9566L16.1261 89.9389L16.1004 89.9209C8.70603 84.7449 3.79408 77.656 1.44359 68.8416L1.43194 68.7979L1.42115 68.7541C-0.745776 59.9419 -0.391038 49.965 2.18741 38.9727L2.2413 38.7429L2.31823 38.5199C5.12216 30.3885 9.34399 23.6965 15.1035 18.6666C20.7233 13.6303 27.3913 10.0676 35.021 7.94822C42.4601 5.88181 50.3351 4.86197 58.6263 4.86197C70.1959 4.86197 79.9184 7.1663 87.3115 12.2891C94.7222 17.3344 99.6379 24.3625 101.993 33.1627C104.46 41.8993 104.23 51.7997 101.644 62.6898L101.591 62.9143L101.515 63.1325C101.053 64.4696 100.546 65.7707 99.9939 67.0352L160.451 0L188.249 20.0463L141.694 71.5834C145 69.8726 148.533 68.4977 152.285 67.4554C159.724 65.389 167.599 64.3692 175.89 64.3692C187.468 64.3692 197.232 66.6766 204.735 71.7723C212.296 76.8194 217.246 83.8765 219.47 92.7403C221.791 101.476 221.422 111.307 218.697 122.069L218.661 122.211L218.617 122.35C216.056 130.316 211.875 137.004 206.025 142.269L206.022 142.272L206.02 142.274C200.435 147.285 193.817 150.968 186.241 153.355C178.867 155.719 170.933 156.879 162.472 156.879C150.856 156.879 141.024 154.491 133.4 149.258L133.382 149.246L133.365 149.234C125.97 144.058 121.058 136.969 118.708 128.154L118.696 128.111L118.685 128.067C116.519 119.257 116.872 109.342 119.455 98.4673L119.497 98.2904L119.552 98.1173C119.92 96.9769 120.315 95.8646 120.739 94.7812L60.2427 161.753ZM72.617 50.9948C72.617 62.6069 63.2035 72.0204 51.5914 72.0204C39.9793 72.0204 30.5658 62.6069 30.5658 50.9948C30.5658 39.3827 39.9793 29.9692 51.5914 29.9692C63.2035 29.9692 72.617 39.3827 72.617 50.9948ZM190.518 111.29C190.518 122.902 181.105 132.316 169.493 132.316C157.881 132.316 148.467 122.902 148.467 111.29C148.467 99.6778 157.881 90.2643 169.493 90.2643C181.105 90.2643 190.518 99.6778 190.518 111.29Z" fill="#FFB9FF"/>
</svg>
