<svg width="71" height="70" viewBox="0 0 71 70" fill="none" xmlns="http://www.w3.org/2000/svg">
<mask id="mask0_481_347" style="mask-type:alpha" maskUnits="userSpaceOnUse" x="0" y="0" width="71" height="70">
<rect x="0.5" width="70" height="70" fill="#D9D9D9"/>
</mask>
<g mask="url(#mask0_481_347)">
<path d="M49.8026 56.875C49.0559 56.875 48.4298 56.6222 47.9243 56.1167C47.4192 55.6116 47.1667 54.9855 47.1667 54.2383V42.2917C47.1667 41.545 47.4192 40.9189 47.9243 40.4133C48.4298 39.9083 49.0559 39.6557 49.8026 39.6557H54.7383C55.4855 39.6557 56.1116 39.9083 56.6167 40.4133C57.1222 40.9189 57.375 41.545 57.375 42.2917V54.2383C57.375 54.9855 57.1222 55.6116 56.6167 56.1167C56.1116 56.6222 55.4855 56.875 54.7383 56.875H49.8026ZM33.0318 56.875C32.2851 56.875 31.659 56.6222 31.1534 56.1167C30.6484 55.6116 30.3958 54.9855 30.3958 54.2383V15.7617C30.3958 15.0145 30.6484 14.3884 31.1534 13.8833C31.659 13.3778 32.2851 13.125 33.0318 13.125H37.9682C38.7149 13.125 39.341 13.3778 39.8466 13.8833C40.3516 14.3884 40.6042 15.0145 40.6042 15.7617V54.2383C40.6042 54.9855 40.3516 55.6116 39.8466 56.1167C39.341 56.6222 38.7149 56.875 37.9682 56.875H33.0318ZM16.2617 56.875C15.5145 56.875 14.8884 56.6222 14.3833 56.1167C13.8778 55.6116 13.625 54.9855 13.625 54.2383V30.0774C13.625 29.3171 13.8778 28.6854 14.3833 28.1823C14.8884 27.6797 15.5145 27.4283 16.2617 27.4283H21.1974C21.9441 27.4283 22.5702 27.6809 23.0757 28.1859C23.5808 28.691 23.8333 29.3171 23.8333 30.0643V54.2252C23.8333 54.986 23.5808 55.6177 23.0757 56.1203C22.5702 56.6234 21.9441 56.875 21.1974 56.875H16.2617Z" fill="#032C28"/>
</g>
</svg>
