<svg width="71" height="70" viewBox="0 0 71 70" fill="none" xmlns="http://www.w3.org/2000/svg">
<mask id="mask0_481_341" style="mask-type:alpha" maskUnits="userSpaceOnUse" x="0" y="0" width="71" height="70">
<rect x="0.5" width="70" height="70" fill="#D9D9D9"/>
</mask>
<g mask="url(#mask0_481_341)">
<path d="M5.74512 49.8298C5.74512 48.3267 6.13303 46.9853 6.90887 45.8055C7.6847 44.6257 8.72085 43.708 10.0173 43.0522C12.7891 41.6964 15.5762 40.651 18.3787 39.916C21.1816 39.1815 24.2618 38.8143 27.6194 38.8143C30.9774 38.8143 34.0577 39.1815 36.8601 39.916C39.663 40.651 42.4504 41.6964 45.2222 43.0522C46.5187 43.708 47.5548 44.6257 48.3306 45.8055C49.1065 46.9853 49.4944 48.3267 49.4944 49.8298V51.8831C49.4944 53.0571 49.0635 54.0891 48.2016 54.9792C47.3397 55.8692 46.2936 56.3143 45.0632 56.3143H10.1755C8.94567 56.3143 7.89981 55.8833 7.03793 55.0215C6.17606 54.1591 5.74512 53.113 5.74512 51.8831V49.8298ZM60.8249 56.3143H54.2004C54.567 55.6449 54.8465 54.9325 55.039 54.1771C55.2315 53.4217 55.3277 52.657 55.3277 51.8831V49.471C55.3277 47.5567 54.8591 45.7321 53.9219 43.9972C52.9842 42.2627 51.6542 40.7745 49.9319 39.5325C51.8875 39.8242 53.7442 40.2755 55.502 40.8866C57.2593 41.4981 58.9364 42.2207 60.5332 43.0544C62.0402 43.8584 63.2039 44.8061 64.0245 45.8974C64.8451 46.9882 65.2553 48.1794 65.2553 49.471V51.8831C65.2553 53.113 64.8244 54.1591 63.9625 55.0215C63.1006 55.8833 62.0548 56.3143 60.8249 56.3143ZM27.6194 34.1024C24.8121 34.1024 22.409 33.103 20.4101 31.1041C18.4112 29.1047 17.4118 26.7014 17.4118 23.8941C17.4118 21.0868 18.4112 18.6837 20.4101 16.6848C22.409 14.6854 24.8121 13.6857 27.6194 13.6857C30.4267 13.6857 32.83 14.6854 34.8294 16.6848C36.8283 18.6837 37.8277 21.0868 37.8277 23.8941C37.8277 26.7014 36.8283 29.1047 34.8294 31.1041C32.83 33.103 30.4267 34.1024 27.6194 34.1024ZM52.8033 23.8941C52.8033 26.7014 51.8039 29.1047 49.805 31.1041C47.8061 33.103 45.403 34.1024 42.5957 34.1024C42.2667 34.1024 41.8479 34.065 41.3394 33.9901C40.8304 33.9152 40.4116 33.8331 40.083 33.7436C41.2332 32.3607 42.1172 30.8265 42.735 29.1411C43.3524 27.4558 43.6611 25.7058 43.6611 23.8911C43.6611 22.076 43.3461 20.3326 42.7161 18.6608C42.0861 16.9896 41.2084 15.451 40.083 14.0452C40.5016 13.8955 40.9204 13.7983 41.3394 13.7535C41.7579 13.7083 42.1767 13.6857 42.5957 13.6857C45.403 13.6857 47.8061 14.6854 49.805 16.6848C51.8039 18.6837 52.8033 21.0868 52.8033 23.8941ZM10.1194 51.9393H45.1194V49.8298C45.1194 49.2207 44.967 48.6787 44.6622 48.2038C44.3579 47.7288 43.8747 47.3137 43.2126 46.9583C40.8122 45.7207 38.3406 44.783 35.7977 44.1452C33.2549 43.5079 30.5288 43.1893 27.6194 43.1893C24.7105 43.1893 21.9846 43.5079 19.4418 44.1452C16.8989 44.783 14.4273 45.7207 12.0269 46.9583C11.3648 47.3137 10.8814 47.7288 10.5766 48.2038C10.2718 48.6787 10.1194 49.2207 10.1194 49.8298V51.9393ZM27.6194 29.7274C29.2236 29.7274 30.5968 29.1562 31.7392 28.0139C32.8815 26.8715 33.4527 25.4982 33.4527 23.8941C33.4527 22.2899 32.8815 20.9166 31.7392 19.7743C30.5968 18.6319 29.2236 18.0607 27.6194 18.0607C26.0152 18.0607 24.642 18.6319 23.4996 19.7743C22.3572 20.9166 21.7861 22.2899 21.7861 23.8941C21.7861 25.4982 22.3572 26.8715 23.4996 28.0139C24.642 29.1562 26.0152 29.7274 27.6194 29.7274Z" fill="#032C28"/>
</g>
</svg>
