<svg width="71" height="70" viewBox="0 0 71 70" fill="none" xmlns="http://www.w3.org/2000/svg">
<mask id="mask0_481_353" style="mask-type:alpha" maskUnits="userSpaceOnUse" x="0" y="0" width="71" height="70">
<rect x="0.5" width="70" height="70" fill="#D9D9D9"/>
</mask>
<g mask="url(#mask0_481_353)">
<path d="M35.6209 62.7084C33.4543 62.7084 31.6127 61.9476 30.096 60.4261C28.5793 58.9045 27.821 57.0571 27.821 54.8837C27.821 53.1487 28.337 51.5961 29.369 50.2257C30.401 48.8554 31.7155 47.9289 33.3123 47.4462V26.9004L22.0606 40.5475C22.5058 41.1717 22.8471 41.8513 23.0843 42.5863C23.3215 43.3208 23.4401 44.1012 23.4401 44.9276C23.4401 47.101 22.6738 48.9485 21.1411 50.47C19.6079 51.9916 17.758 52.7523 15.5914 52.7523C13.4248 52.7523 11.5832 51.992 10.0665 50.4715C8.54984 48.9509 7.7915 47.1047 7.7915 44.9327C7.7915 42.7608 8.54959 40.9128 10.0658 39.3889C11.5815 37.8654 13.4221 37.1037 15.5878 37.1037C16.1492 37.1037 16.6852 37.154 17.1956 37.2546C17.7055 37.3557 18.2035 37.5222 18.6896 37.7541L31.7643 21.886C30.5602 21.2283 29.5778 20.3029 28.817 19.11C28.0558 17.9171 27.6752 16.5859 27.6752 15.1164C27.6752 12.943 28.4335 11.0955 29.9502 9.57398C31.4668 8.05245 33.3084 7.29169 35.475 7.29169C37.6416 7.29169 39.4915 8.05245 41.0247 9.57398C42.5579 11.0955 43.3245 12.943 43.3245 15.1164C43.3245 16.5859 42.9439 17.9171 42.1827 19.11C41.4219 20.3029 40.43 21.2283 39.2069 21.886L52.31 37.7264C52.7962 37.513 53.2883 37.3557 53.7866 37.2546C54.2844 37.154 54.8074 37.1037 55.3558 37.1037C57.5243 37.1037 59.3752 37.8637 60.9084 39.3838C62.4416 40.9043 63.2082 42.7508 63.2082 44.9232C63.2082 47.0952 62.4416 48.9429 60.9084 50.4664C59.3752 51.9903 57.5253 52.7523 55.3587 52.7523C53.1921 52.7523 51.3505 51.9916 49.8338 50.47C48.3176 48.9485 47.5595 47.101 47.5595 44.9276C47.5595 44.108 47.6781 43.3244 47.9154 42.5768C48.1526 41.8296 48.4938 41.1437 48.9391 40.5191L37.6873 26.9004V47.3565C39.3625 47.809 40.745 48.7234 41.8348 50.0996C42.9252 51.4753 43.4704 53.07 43.4704 54.8837C43.4704 57.0571 42.7038 58.9045 41.1706 60.4261C39.6374 61.9476 37.7875 62.7084 35.6209 62.7084ZM35.6318 58.3056C36.5982 58.3056 37.4171 57.9751 38.0884 57.314C38.7597 56.6529 39.0954 55.834 39.0954 54.8574C39.0954 53.8803 38.7621 53.0607 38.0957 52.3987C37.4287 51.7371 36.6028 51.4063 35.618 51.4063C34.6603 51.4063 33.8507 51.7419 33.1891 52.4132C32.527 53.0841 32.196 53.8983 32.196 54.856C32.196 55.8131 32.527 56.6273 33.1891 57.2987C33.8507 57.97 34.6649 58.3056 35.6318 58.3056ZM15.6023 48.3773C16.5687 48.3773 17.3876 48.047 18.0589 47.3864C18.7302 46.7253 19.0659 45.9062 19.0659 44.9291C19.0659 43.9525 18.7324 43.1331 18.0655 42.4711C17.399 41.8095 16.5731 41.4787 15.5878 41.4787C14.6306 41.4787 13.8212 41.8141 13.1596 42.4849C12.4975 43.1562 12.1665 43.9705 12.1665 44.9276C12.1665 45.8853 12.4975 46.6995 13.1596 47.3703C13.8212 48.0417 14.6355 48.3773 15.6023 48.3773ZM55.3696 48.3773C56.336 48.3773 57.1549 48.047 57.8262 47.3864C58.4975 46.7253 58.8332 45.9062 58.8332 44.9291C58.8332 43.9525 58.4999 43.1331 57.8335 42.4711C57.167 41.8095 56.3411 41.4787 55.3558 41.4787C54.3981 41.4787 53.5885 41.8141 52.9269 42.4849C52.2648 43.1562 51.9338 43.9705 51.9338 44.9276C51.9338 45.8853 52.2648 46.6995 52.9269 47.3703C53.5885 48.0417 54.4028 48.3773 55.3696 48.3773ZM35.486 18.5661C36.4524 18.5661 37.2712 18.2355 37.9425 17.5744C38.6139 16.9138 38.9495 16.0949 38.9495 15.1178C38.9495 14.1408 38.6163 13.3214 37.9498 12.6598C37.2829 11.9977 36.457 11.6667 35.4721 11.6667C34.5145 11.6667 33.7049 12.0023 33.0433 12.6737C32.3812 13.345 32.0502 14.1592 32.0502 15.1164C32.0502 16.0735 32.3812 16.8878 33.0433 17.5591C33.7049 18.2304 34.5191 18.5661 35.486 18.5661Z" fill="#032C28"/>
</g>
</svg>
