<svg width="71" height="70" viewBox="0 0 71 70" fill="none" xmlns="http://www.w3.org/2000/svg">
<mask id="mask0_481_359" style="mask-type:alpha" maskUnits="userSpaceOnUse" x="0" y="0" width="71" height="70">
<rect x="0.5" width="70" height="70" fill="#D9D9D9"/>
</mask>
<g mask="url(#mask0_481_359)">
<path d="M35.5167 60.5209C34.896 60.5209 34.3763 60.3113 33.9578 59.8923C33.5387 59.4738 33.3292 58.9541 33.3292 58.3334V54.4185C31.0858 54.0257 29.1331 53.2309 27.4711 52.0341C25.8086 50.8378 24.4764 49.1738 23.4745 47.0422C23.2276 46.5303 23.2247 45.9864 23.4658 45.4103C23.7069 44.8343 24.1286 44.423 24.7309 44.1766C25.2432 43.9598 25.7797 43.9671 26.3402 44.1985C26.9011 44.4303 27.3199 44.8175 27.5965 45.36C28.4419 46.9676 29.5293 48.195 30.8588 49.0423C32.1878 49.8891 33.8788 50.3125 35.9316 50.3125C38.037 50.3125 39.8946 49.8116 41.5046 48.8097C43.1141 47.8074 43.9189 46.218 43.9189 44.0417C43.9189 42.1531 43.3142 40.6452 42.1047 39.5179C40.8948 38.3906 38.3923 37.2138 34.5972 35.9873C30.6223 34.7307 27.8617 33.2612 26.3154 31.5788C24.769 29.8959 23.9959 27.7793 23.9959 25.2292C23.9959 22.294 25.0262 19.9841 27.0868 18.2992C29.147 16.6148 31.2278 15.679 33.3292 15.4919V11.6667C33.3292 11.0459 33.5387 10.5263 33.9578 10.1077C34.3763 9.6887 34.896 9.47919 35.5167 9.47919C36.1375 9.47919 36.6571 9.6887 37.0757 10.1077C37.4947 10.5263 37.7042 11.0459 37.7042 11.6667V15.4919C39.4955 15.7277 41.0669 16.2485 42.4183 17.0545C43.7702 17.86 44.9023 18.919 45.8147 20.2315C46.1399 20.7137 46.2109 21.2409 46.0277 21.813C45.8444 22.3852 45.4519 22.804 44.8501 23.0694C44.3377 23.3052 43.8059 23.3314 43.2546 23.1481C42.7029 22.9649 42.1952 22.6171 41.7314 22.1047C41.0436 21.3123 40.2181 20.687 39.2552 20.2286C38.2922 19.7706 37.0946 19.5417 35.6626 19.5417C33.4678 19.5417 31.7037 20.0764 30.3703 21.1459C29.0373 22.2153 28.3709 23.5764 28.3709 25.2292C28.3709 26.9267 29.0534 28.2842 30.4184 29.3016C31.7829 30.3185 34.3199 31.3841 38.0294 32.4983C41.4769 33.5453 44.0497 35.0375 45.7477 36.9746C47.4452 38.9113 48.2939 41.2371 48.2939 43.952C48.2939 47.1414 47.2685 49.6167 45.2176 51.3778C43.1667 53.1395 40.6622 54.1829 37.7042 54.5081V58.3334C37.7042 58.9541 37.4947 59.4738 37.0757 59.8923C36.6571 60.3113 36.1375 60.5209 35.5167 60.5209Z" fill="#032C28"/>
</g>
</svg>
